<svg xmlns="http://www.w3.org/2000/svg" width="1280" height="430" viewBox="0 0 1280 430">
<style>@keyframes kp{0%,1.67%{opacity:0}3.67%,88%{opacity:1}94%,100%{opacity:0}}.kp{opacity:0;animation:kp 12.0s infinite}@keyframes kr0{0%,8.33%{opacity:0}10.33%,88%{opacity:1}94%,100%{opacity:0}}.kr0{opacity:0;animation:kr0 12.0s infinite}@keyframes kr1{0%,20.83%{opacity:0}22.83%,88%{opacity:1}94%,100%{opacity:0}}.kr1{opacity:0;animation:kr1 12.0s infinite}@keyframes ks1{0%,25.83%{opacity:0}27.83%,88%{opacity:1}94%,100%{opacity:0}}.ks1{opacity:0;animation:ks1 12.0s infinite}@keyframes kr2{0%,33.33%{opacity:0}35.33%,88%{opacity:1}94%,100%{opacity:0}}.kr2{opacity:0;animation:kr2 12.0s infinite}@keyframes ks2{0%,38.33%{opacity:0}40.33%,88%{opacity:1}94%,100%{opacity:0}}.ks2{opacity:0;animation:ks2 12.0s infinite}@keyframes kr3{0%,45.83%{opacity:0}47.83%,88%{opacity:1}94%,100%{opacity:0}}.kr3{opacity:0;animation:kr3 12.0s infinite}@keyframes ks3{0%,50.83%{opacity:0}52.83%,88%{opacity:1}94%,100%{opacity:0}}.ks3{opacity:0;animation:ks3 12.0s infinite}@keyframes kr4{0%,58.33%{opacity:0}60.33%,88%{opacity:1}94%,100%{opacity:0}}.kr4{opacity:0;animation:kr4 12.0s infinite}@keyframes ks4{0%,63.33%{opacity:0}65.33%,88%{opacity:1}94%,100%{opacity:0}}.ks4{opacity:0;animation:ks4 12.0s infinite}@keyframes blink{50%{opacity:0}}.cur{animation:blink 1s steps(1) infinite}@keyframes slide{to{transform:translateX(-1680px)}}.chain{animation:slide 30s linear infinite}</style>
<defs><pattern id="dots" width="24" height="24" patternUnits="userSpaceOnUse"><circle cx="2" cy="2" r="1" fill="#e6edf3" opacity=".06"/></pattern>
<linearGradient id="fade" x1="0" x2="1"><stop offset="0" stop-color="#0b0f14"/><stop offset=".08" stop-color="#0b0f14" stop-opacity="0"/><stop offset=".92" stop-color="#0b0f14" stop-opacity="0"/><stop offset="1" stop-color="#0b0f14"/></linearGradient>
<clipPath id="r"><rect width="1280" height="430" rx="18"/></clipPath></defs>
<g clip-path="url(#r)"><rect width="1280" height="430" fill="#0b0f14"/><rect width="1280" height="430" fill="url(#dots)"/>
<text x="64" y="116" font-family="ui-monospace,SFMono-Regular,Menlo,Consolas,monospace" font-size="15" fill="#5eead4">github.com/kamalbuilds</text>
<text x="60" y="206" font-family="-apple-system,BlinkMacSystemFont,'Segoe UI',Helvetica,Arial,sans-serif" font-size="92" font-weight="700" fill="#f0f6fc" letter-spacing="-2">Kamal</text>
<text x="64" y="252" font-family="-apple-system,BlinkMacSystemFont,'Segoe UI',Helvetica,Arial,sans-serif" font-size="26" font-weight="600" fill="#e6edf3">AI &#215; blockchain engineer</text>
<text x="64" y="286" font-family="-apple-system,BlinkMacSystemFont,'Segoe UI',Helvetica,Arial,sans-serif" font-size="20" fill="#8b949e">Software that thinks, then proves what it did on-chain.</text>
<rect x="652" y="48" width="568" height="290" rx="14" fill="#0f141b" stroke="#222a33"/>
<text x="676" y="79" font-family="ui-monospace,SFMono-Regular,Menlo,Consolas,monospace" font-size="13" fill="#6e7681">~/frontier</text>
<line x1="652" y1="94" x2="1220" y2="94" stroke="#222a33"/>
<text x="676" y="128" font-family="ui-monospace,SFMono-Regular,Menlo,Consolas,monospace" font-size="15" fill="#8b949e"><tspan fill="#5eead4">$</tspan> kamal ship --frontier "ai &#215; chain"</text><g class="kr0" font-family="ui-monospace,SFMono-Regular,Menlo,Consolas,monospace" font-size="15"><text x="676" y="160" fill="#5eead4">agent</text><text x="774" y="160" fill="#8b949e">plan</text><text x="846" y="160" fill="#e6edf3">supply 1 USDC to Aave on Monad</text></g><g class="kr1" font-family="ui-monospace,SFMono-Regular,Menlo,Consolas,monospace" font-size="15"><text x="676" y="192" fill="#5eead4">policy</text><text x="774" y="192" fill="#8b949e">check</text><text x="846" y="192" fill="#e6edf3">inside the signed mandate</text></g><text class="ks1" x="1196" y="192" text-anchor="end" font-family="ui-monospace,SFMono-Regular,Menlo,Consolas,monospace" font-size="15" font-weight="600" fill="#5eead4">ok</text><g class="kr2" font-family="ui-monospace,SFMono-Regular,Menlo,Consolas,monospace" font-size="15"><text x="676" y="224" fill="#5eead4">noir</text><text x="774" y="224" fill="#8b949e">prove</text><text x="846" y="224" fill="#e6edf3">solvent, amount hidden</text></g><text class="ks2" x="1196" y="224" text-anchor="end" font-family="ui-monospace,SFMono-Regular,Menlo,Consolas,monospace" font-size="15" font-weight="600" fill="#5eead4">verified</text><g class="kr3" font-family="ui-monospace,SFMono-Regular,Menlo,Consolas,monospace" font-size="15"><text x="676" y="256" fill="#5eead4">darkbook</text><text x="774" y="256" fill="#8b949e">match</text><text x="846" y="256" fill="#e6edf3">taker size hidden, &lt;50ms</text></g><text class="ks3" x="1196" y="256" text-anchor="end" font-family="ui-monospace,SFMono-Regular,Menlo,Consolas,monospace" font-size="15" font-weight="600" fill="#5eead4">filled</text><g class="kr4" font-family="ui-monospace,SFMono-Regular,Menlo,Consolas,monospace" font-size="15"><text x="676" y="288" fill="#5eead4">chain</text><text x="774" y="288" fill="#8b949e">settle</text><text x="846" y="288" fill="#e6edf3">block 93,291,520</text></g><text class="ks4" x="1196" y="288" text-anchor="end" font-family="ui-monospace,SFMono-Regular,Menlo,Consolas,monospace" font-size="15" font-weight="600" fill="#5eead4">confirmed</text>
<rect class="cur" x="676" y="306" width="9" height="17" fill="#5eead4"/>
<g transform="translate(0 368)"><g class="chain"><rect x="0" y="0" width="150" height="34" rx="7" fill="#10161d" stroke="#232b35"/><text x="14" y="22" font-family="ui-monospace,SFMono-Regular,Menlo,Consolas,monospace" font-size="12" fill="#6e7681">#93,291,511</text><rect x="128" y="13" width="8" height="8" rx="2" fill="#5eead4" opacity=".55"/><line x1="150" y1="17" x2="168" y2="17" stroke="#232b35" stroke-width="2"/><rect x="168" y="0" width="150" height="34" rx="7" fill="#10161d" stroke="#232b35"/><text x="182" y="22" font-family="ui-monospace,SFMono-Regular,Menlo,Consolas,monospace" font-size="12" fill="#6e7681">#93,291,512</text><rect x="296" y="13" width="8" height="8" rx="2" fill="#5eead4" opacity=".55"/><line x1="318" y1="17" x2="336" y2="17" stroke="#232b35" stroke-width="2"/><rect x="336" y="0" width="150" height="34" rx="7" fill="#10161d" stroke="#232b35"/><text x="350" y="22" font-family="ui-monospace,SFMono-Regular,Menlo,Consolas,monospace" font-size="12" fill="#6e7681">#93,291,513</text><rect x="464" y="13" width="8" height="8" rx="2" fill="#5eead4" opacity=".55"/><line x1="486" y1="17" x2="504" y2="17" stroke="#232b35" stroke-width="2"/><rect x="504" y="0" width="150" height="34" rx="7" fill="#10161d" stroke="#232b35"/><text x="518" y="22" font-family="ui-monospace,SFMono-Regular,Menlo,Consolas,monospace" font-size="12" fill="#6e7681">#93,291,514</text><rect x="632" y="13" width="8" height="8" rx="2" fill="#5eead4" opacity=".55"/><line x1="654" y1="17" x2="672" y2="17" stroke="#232b35" stroke-width="2"/><rect x="672" y="0" width="150" height="34" rx="7" fill="#10161d" stroke="#232b35"/><text x="686" y="22" font-family="ui-monospace,SFMono-Regular,Menlo,Consolas,monospace" font-size="12" fill="#6e7681">#93,291,515</text><rect x="800" y="13" width="8" height="8" rx="2" fill="#5eead4" opacity=".55"/><line x1="822" y1="17" x2="840" y2="17" stroke="#232b35" stroke-width="2"/><rect x="840" y="0" width="150" height="34" rx="7" fill="#10161d" stroke="#232b35"/><text x="854" y="22" font-family="ui-monospace,SFMono-Regular,Menlo,Consolas,monospace" font-size="12" fill="#6e7681">#93,291,516</text><rect x="968" y="13" width="8" height="8" rx="2" fill="#5eead4" opacity=".55"/><line x1="990" y1="17" x2="1008" y2="17" stroke="#232b35" stroke-width="2"/><rect x="1008" y="0" width="150" height="34" rx="7" fill="#10161d" stroke="#232b35"/><text x="1022" y="22" font-family="ui-monospace,SFMono-Regular,Menlo,Consolas,monospace" font-size="12" fill="#6e7681">#93,291,517</text><rect x="1136" y="13" width="8" height="8" rx="2" fill="#5eead4" opacity=".55"/><line x1="1158" y1="17" x2="1176" y2="17" stroke="#232b35" stroke-width="2"/><rect x="1176" y="0" width="150" height="34" rx="7" fill="#10161d" stroke="#232b35"/><text x="1190" y="22" font-family="ui-monospace,SFMono-Regular,Menlo,Consolas,monospace" font-size="12" fill="#6e7681">#93,291,518</text><rect x="1304" y="13" width="8" height="8" rx="2" fill="#5eead4" opacity=".55"/><line x1="1326" y1="17" x2="1344" y2="17" stroke="#232b35" stroke-width="2"/><rect x="1344" y="0" width="150" height="34" rx="7" fill="#10161d" stroke="#232b35"/><text x="1358" y="22" font-family="ui-monospace,SFMono-Regular,Menlo,Consolas,monospace" font-size="12" fill="#6e7681">#93,291,519</text><rect x="1472" y="13" width="8" height="8" rx="2" fill="#5eead4" opacity=".55"/><line x1="1494" y1="17" x2="1512" y2="17" stroke="#232b35" stroke-width="2"/><rect x="1512" y="0" width="150" height="34" rx="7" fill="#10161d" stroke="#232b35"/><text x="1526" y="22" font-family="ui-monospace,SFMono-Regular,Menlo,Consolas,monospace" font-size="12" fill="#6e7681">#93,291,520</text><rect x="1640" y="13" width="8" height="8" rx="2" fill="#5eead4" opacity=".55"/><line x1="1662" y1="17" x2="1680" y2="17" stroke="#232b35" stroke-width="2"/><rect x="1680" y="0" width="150" height="34" rx="7" fill="#10161d" stroke="#232b35"/><text x="1694" y="22" font-family="ui-monospace,SFMono-Regular,Menlo,Consolas,monospace" font-size="12" fill="#6e7681">#93,291,511</text><rect x="1808" y="13" width="8" height="8" rx="2" fill="#5eead4" opacity=".55"/><line x1="1830" y1="17" x2="1848" y2="17" stroke="#232b35" stroke-width="2"/><rect x="1848" y="0" width="150" height="34" rx="7" fill="#10161d" stroke="#232b35"/><text x="1862" y="22" font-family="ui-monospace,SFMono-Regular,Menlo,Consolas,monospace" font-size="12" fill="#6e7681">#93,291,512</text><rect x="1976" y="13" width="8" height="8" rx="2" fill="#5eead4" opacity=".55"/><line x1="1998" y1="17" x2="2016" y2="17" stroke="#232b35" stroke-width="2"/><rect x="2016" y="0" width="150" height="34" rx="7" fill="#10161d" stroke="#232b35"/><text x="2030" y="22" font-family="ui-monospace,SFMono-Regular,Menlo,Consolas,monospace" font-size="12" fill="#6e7681">#93,291,513</text><rect x="2144" y="13" width="8" height="8" rx="2" fill="#5eead4" opacity=".55"/><line x1="2166" y1="17" x2="2184" y2="17" stroke="#232b35" stroke-width="2"/><rect x="2184" y="0" width="150" height="34" rx="7" fill="#10161d" stroke="#232b35"/><text x="2198" y="22" font-family="ui-monospace,SFMono-Regular,Menlo,Consolas,monospace" font-size="12" fill="#6e7681">#93,291,514</text><rect x="2312" y="13" width="8" height="8" rx="2" fill="#5eead4" opacity=".55"/><line x1="2334" y1="17" x2="2352" y2="17" stroke="#232b35" stroke-width="2"/><rect x="2352" y="0" width="150" height="34" rx="7" fill="#10161d" stroke="#232b35"/><text x="2366" y="22" font-family="ui-monospace,SFMono-Regular,Menlo,Consolas,monospace" font-size="12" fill="#6e7681">#93,291,515</text><rect x="2480" y="13" width="8" height="8" rx="2" fill="#5eead4" opacity=".55"/><line x1="2502" y1="17" x2="2520" y2="17" stroke="#232b35" stroke-width="2"/><rect x="2520" y="0" width="150" height="34" rx="7" fill="#10161d" stroke="#232b35"/><text x="2534" y="22" font-family="ui-monospace,SFMono-Regular,Menlo,Consolas,monospace" font-size="12" fill="#6e7681">#93,291,516</text><rect x="2648" y="13" width="8" height="8" rx="2" fill="#5eead4" opacity=".55"/><line x1="2670" y1="17" x2="2688" y2="17" stroke="#232b35" stroke-width="2"/><rect x="2688" y="0" width="150" height="34" rx="7" fill="#10161d" stroke="#232b35"/><text x="2702" y="22" font-family="ui-monospace,SFMono-Regular,Menlo,Consolas,monospace" font-size="12" fill="#6e7681">#93,291,517</text><rect x="2816" y="13" width="8" height="8" rx="2" fill="#5eead4" opacity=".55"/><line x1="2838" y1="17" x2="2856" y2="17" stroke="#232b35" stroke-width="2"/><rect x="2856" y="0" width="150" height="34" rx="7" fill="#10161d" stroke="#232b35"/><text x="2870" y="22" font-family="ui-monospace,SFMono-Regular,Menlo,Consolas,monospace" font-size="12" fill="#6e7681">#93,291,518</text><rect x="2984" y="13" width="8" height="8" rx="2" fill="#5eead4" opacity=".55"/><line x1="3006" y1="17" x2="3024" y2="17" stroke="#232b35" stroke-width="2"/><rect x="3024" y="0" width="150" height="34" rx="7" fill="#10161d" stroke="#232b35"/><text x="3038" y="22" font-family="ui-monospace,SFMono-Regular,Menlo,Consolas,monospace" font-size="12" fill="#6e7681">#93,291,519</text><rect x="3152" y="13" width="8" height="8" rx="2" fill="#5eead4" opacity=".55"/><line x1="3174" y1="17" x2="3192" y2="17" stroke="#232b35" stroke-width="2"/><rect x="3192" y="0" width="150" height="34" rx="7" fill="#10161d" stroke="#232b35"/><text x="3206" y="22" font-family="ui-monospace,SFMono-Regular,Menlo,Consolas,monospace" font-size="12" fill="#6e7681">#93,291,520</text><rect x="3320" y="13" width="8" height="8" rx="2" fill="#5eead4" opacity=".55"/><line x1="3342" y1="17" x2="3360" y2="17" stroke="#232b35" stroke-width="2"/></g></g>
<rect y="364" width="1280" height="42" fill="url(#fade)"/></g>
</svg>